<svg viewBox="0 0 64 64" xml:space="preserve" xmlns="http://www.w3.org/2000/svg"><g fill="#b4d42a" class="fill-241f20"><path d="m62.35 29.888.002-.001-15.037 5.176c-2.734.943-2.965-.059-2.979-.334v-4.253c0-2.63-1.721-4.764-3.846-4.764H4.006c-2.124 0-3.847 2.134-3.847 4.764v27.358c0 2.629 1.723 4.762 3.847 4.762H40.49c2.125 0 3.846-2.133 3.846-4.762v-2.873c.012-.225.227-1.008 2.77-.404l15.529 3.699c.561.176 1.207.135 1.207-1.016V31.016c0-1.54-1.024-1.314-1.492-1.128z"></path><circle cx="10.48" cy="11.724" r="10.32"></circle><circle cx="34.055" cy="11.724" r="10.32"></circle></g></svg>