<svg viewBox="0 0 24 24" xml:space="preserve" xmlns="http://www.w3.org/2000/svg" enable-background="new 0 0 24 24"><g id="Layer_2"><path d="M17 3h-1c-.6 0-1 .4-1 1s.4 1 1 1h1c1.1 0 2 .9 2 2v1.1c0 .6.4 1 1 1s1-.4 1-1V7c0-2.2-1.8-4-4-4zM20 15c-.6 0-1 .4-1 1v1c0 1.1-.9 2-2 2h-1c-.6 0-1 .4-1 1s.4 1 1 1h1c2.2 0 4-1.8 4-4v-1c0-.6-.4-1-1-1zM8 19H7c-1.1 0-2-.9-2-2v-1c0-.6-.4-1-1-1s-1 .4-1 1v1c0 2.2 1.8 4 4 4h1c.6 0 1-.4 1-1s-.4-1-1-1zM4 9c.6 0 1-.4 1-1V7c0-1.1.9-2 2-2h1c.6 0 1-.4 1-1s-.4-1-1-1H7C4.8 3 3 4.8 3 7v1c0 .5.4 1 1 1zM20 11H4c-.6 0-1 .4-1 1s.4 1 1 1h16c.6 0 1-.4 1-1s-.4-1-1-1z" fill="#b9b9b9" class="fill-000000"></path></g></svg>