<svg viewBox="0 0 6.35 6.35" xmlns="http://www.w3.org/2000/svg"><path d="M2.116.53c-.37 0-.38.529 0 .529h.264v.404c.169-.06.346-.103.53-.124v-.28h.53v.28c.183.02.36.063.528.123v-.403h.264a.266.266 0 0 0 0-.53zm1.06 1.058a2.122 2.122 0 0 0-2.118 2.118A2.12 2.12 0 0 0 3.176 5.82c1.166 0 2.115-.95 2.115-2.115a2.12 2.12 0 0 0-2.115-2.118zm2.38.264a.265.265 0 0 0-.146.045l-.415.276c.114.135.212.282.294.44l.414-.277a.265.265 0 0 0-.146-.484zm-4.763 0-.019.002a.265.265 0 0 0-.129.482l.416.277c.082-.158.18-.305.294-.44L.94 1.897a.265.265 0 0 0-.147-.044zm1.775.871.717.717h.947c.39 0 .38.53 0 .53H3.176a.265.265 0 0 1-.188-.079l-.796-.793c-.233-.234.144-.607.376-.375Z" style="line-height:normal;font-variant-ligatures:normal;font-variant-position:normal;font-variant-caps:normal;font-variant-numeric:normal;font-variant-alternates:normal;font-variant-east-asian:normal;font-feature-settings:normal;font-variation-settings:normal;text-indent:0;text-align:start;text-decoration-line:none;text-decoration-style:solid;text-decoration-color:#000;text-transform:none;text-orientation:mixed;white-space:normal;shape-padding:0;shape-margin:0;inline-size:0;isolation:auto;mix-blend-mode:normal;solid-color:#000;solid-opacity:1" color="#000000" font-style="normal" font-variant="normal" font-weight="400" font-stretch="normal" font-size="medium" font-family="sans-serif" text-decoration="none" letter-spacing="normal" word-spacing="normal" writing-mode="lr-tb" direction="ltr" dominant-baseline="auto" baseline-shift="baseline" text-anchor="start" clip-rule="nonzero" display="inline" overflow="visible" visibility="visible" opacity="1" color-interpolation="sRGB" color-interpolation-filters="linearRGB" vector-effect="none" fill="#b4d42a" fill-opacity="1" fill-rule="nonzero" stroke="none" stroke-width=".529262" stroke-linecap="butt" stroke-linejoin="round" stroke-miterlimit="4" stroke-dasharray="none" stroke-dashoffset="0" stroke-opacity="1" color-rendering="auto" image-rendering="auto" shape-rendering="auto" text-rendering="auto" enable-background="accumulate" stop-color="#b4d42a" stop-opacity="1" class="fill-000000 stop-color-000000"></path></svg>