<?xml version="1.0" ?><svg height="24" id="svg3171" version="1.1" viewBox="0 0 6.3499999 6.3500002" width="24" xmlns="http://www.w3.org/2000/svg" xmlns:cc="http://creativecommons.org/ns#" xmlns:dc="http://purl.org/dc/elements/1.1/" xmlns:inkscape="http://www.inkscape.org/namespaces/inkscape" xmlns:rdf="http://www.w3.org/1999/02/22-rdf-syntax-ns#" xmlns:sodipodi="http://sodipodi.sourceforge.net/DTD/sodipodi-0.dtd" xmlns:svg="http://www.w3.org/2000/svg"><defs id="defs3165"/><g id="layer1"><path d="m 2.1164453,0.52916756 c -0.3712964,0 -0.3804838,0.52973504 0,0.52973504 h 0.2636192 v 0.404149 c 0.1689035,-0.06025 0.3455223,-0.103412 0.5293061,-0.124035 v -0.280114 h 0.5298229 v 0.279597 c 0.1837286,0.02041 0.3604869,0.06348 0.5293061,0.123518 v -0.403115 h 0.2636192 c 0.3823378,0 0.3861872,-0.52973504 0,-0.52973504 z M 3.1755741,1.5881206 c -1.1661756,0 -2.1177409,0.951407 -2.1177408,2.1173901 0,1.1659819 0.9515652,2.1153218 2.1177408,2.1153218 1.1661762,0 2.1156737,-0.9493399 2.1156737,-2.1153218 0,-1.1659831 -0.9494975,-2.1173901 -2.1156737,-2.1173901 z m 2.3813606,0.263576 c -0.052302,1.54e-4 -0.1033849,0.0158 -0.1467998,0.04496 l -0.4150712,0.276495 c 0.1135549,0.134754 0.2117685,0.282141 0.2935994,0.43981 l 0.4145544,-0.277013 c 0.1206913,-0.08063 0.1538997,-0.243419 0.074434,-0.364871 -0.048826,-0.07436 -0.1317519,-0.11921 -0.2207167,-0.119384 z m -4.76375442,0.001 c -0.00639,1.03e-4 -0.012764,4.366e-4 -0.019125,10e-4 -0.081552,0.0059 -0.1557751,0.04925 -0.2010743,0.117317 -0.079871,0.120918 -0.047611,0.283576 0.072366,0.364871 l 0.41558792,0.27702 c 0.08196,-0.157654 0.1804144,-0.305067 0.2941163,-0.43981 L 0.94049688,1.8966596 c -0.043676,-0.02889 -0.094945,-0.04418 -0.1473166,-0.04393 z m 1.77451912,0.870317 0.716941,0.716822 h 0.9474784 c 0.390706,0 0.3804275,0.5292501 0,0.5292501 H 3.1755741 c -0.070439,-1.3e-5 -0.1379676,-0.0281 -0.1876346,-0.07804 L 2.1924297,3.0977356 C 1.9587914,2.8640976 2.3361198,2.4914336 2.5676994,2.7230136 Z" id="path2348" style="color:#000000;font-style:normal;font-variant:normal;font-weight:normal;font-stretch:normal;font-size:medium;line-height:normal;font-family:sans-serif;font-variant-ligatures:normal;font-variant-position:normal;font-variant-caps:normal;font-variant-numeric:normal;font-variant-alternates:normal;font-variant-east-asian:normal;font-feature-settings:normal;font-variation-settings:normal;text-indent:0;text-align:start;text-decoration:none;text-decoration-line:none;text-decoration-style:solid;text-decoration-color:#000000;letter-spacing:normal;word-spacing:normal;text-transform:none;writing-mode:lr-tb;direction:ltr;text-orientation:mixed;dominant-baseline:auto;baseline-shift:baseline;text-anchor:start;white-space:normal;shape-padding:0;shape-margin:0;inline-size:0;clip-rule:nonzero;display:inline;overflow:visible;visibility:visible;opacity:1;isolation:auto;mix-blend-mode:normal;color-interpolation:sRGB;color-interpolation-filters:linearRGB;solid-color:#000000;solid-opacity:1;vector-effect:none;fill:#000000;fill-opacity:1;fill-rule:nonzero;stroke:none;stroke-width:0.529262;stroke-linecap:butt;stroke-linejoin:round;stroke-miterlimit:4;stroke-dasharray:none;stroke-dashoffset:0;stroke-opacity:1;color-rendering:auto;image-rendering:auto;shape-rendering:auto;text-rendering:auto;enable-background:accumulate;stop-color:#000000;stop-opacity:1"/></g></svg>